<svg width="57" height="41" viewBox="0 0 57 41" fill="none" xmlns="http://www.w3.org/2000/svg">
<path d="M21.8785 28.4005L31.4267 37.9153C30.007 38.7978 28.4702 39.512 26.8461 40.0279C24.8678 40.6606 22.7587 41 20.5706 41C9.20757 41.0027 0 31.8246 0 20.5014C0 9.17809 9.20757 0 20.5733 0C22.7124 0 24.7752 0.325849 26.7153 0.928671C28.432 1.46361 30.0506 2.21578 31.5385 3.15259L22.0311 12.6239C21.5597 12.5371 21.072 12.4909 20.5733 12.4909C16.1344 12.4909 12.5347 16.078 12.5347 20.5014C12.5347 20.9983 12.581 21.4843 12.6682 21.9541C13.3549 25.6851 16.633 28.5118 20.5733 28.5118C21.0202 28.5118 21.4562 28.4765 21.8813 28.4032L21.8785 28.4005Z" fill="#2828D1" style="fill:#2828D1;fill:color(display-p3 0.1585 0.1585 0.8199);fill-opacity:1;"/>
<path d="M56.7665 39.9482H44.0615L36.8184 32.8413L30.4288 26.5691C30.4288 26.5691 27.6703 23.7815 27.6785 23.7518L24.1795 20.3185L27.5491 17.0122L30.4701 14.1463L30.5003 14.1165L43.8192 1.05078H56.4416L40.6478 16.5449L36.7854 20.3374L40.7084 24.1867L56.7692 39.9482H56.7665Z" fill="#2828D1" style="fill:#2828D1;fill:color(display-p3 0.1585 0.1585 0.8199);fill-opacity:1;"/>
</svg>
