<svg width="28" height="28" viewBox="0 0 28 28" fill="none" xmlns="http://www.w3.org/2000/svg">
<path d="M7.00008 11.0834C7.00008 7.53955 9.87292 4.66671 13.4167 4.66671C16.5559 4.66671 19.1708 6.92209 19.7249 9.90116C19.8027 10.3189 20.1014 10.6614 20.5047 10.7951C22.8272 11.5654 24.5001 13.7556 24.5001 16.3334C24.5001 19.555 21.8884 22.1667 18.6667 22.1667C18.0224 22.1667 17.5001 22.689 17.5001 23.3334C17.5001 23.9777 18.0224 24.5 18.6667 24.5C23.1771 24.5 26.8334 20.8437 26.8334 16.3334C26.8334 12.9588 24.7874 10.0648 21.8708 8.81955C20.8727 5.08438 17.4671 2.33337 13.4167 2.33337C8.58426 2.33337 4.66675 6.25088 4.66675 11.0834C4.66675 11.2004 4.66905 11.3169 4.67362 11.4328C2.57897 12.6413 1.16675 14.9047 1.16675 17.5C1.16675 21.366 4.30075 24.5 8.16675 24.5C8.81108 24.5 9.33342 23.9777 9.33342 23.3334C9.33342 22.689 8.81108 22.1667 8.16675 22.1667C5.58942 22.1667 3.50008 20.0774 3.50008 17.5C3.50008 15.5665 4.67629 13.9049 6.35684 13.197C6.84315 12.9921 7.1314 12.4864 7.05981 11.9635C7.02048 11.6763 7.00008 11.3826 7.00008 11.0834Z" fill="#13558D" style="fill:#13558D;fill:color(display-p3 0.0745 0.3333 0.5529);fill-opacity:1;"/>
<path d="M13.225 16.6281C13.667 16.2351 14.3331 16.2351 14.7752 16.6281L16.5252 18.1836C17.0068 18.6117 17.0501 19.3491 16.6221 19.8307C16.2476 20.252 15.6363 20.3379 15.1667 20.0662V25.6667C15.1667 26.311 14.6444 26.8334 14.0001 26.8334C13.3557 26.8334 12.8334 26.311 12.8334 25.6667V20.0662C12.3638 20.3379 11.7526 20.252 11.3781 19.8307C10.95 19.3491 10.9934 18.6117 11.475 18.1836L13.225 16.6281Z" fill="#13558D" style="fill:#13558D;fill:color(display-p3 0.0745 0.3333 0.5529);fill-opacity:1;"/>
</svg>
